<svg xmlns="http://www.w3.org/2000/svg" width="80.704" height="20.188" viewBox="0 0 80.704 20.188">
  <g id="Group_706" data-name="Group 706" transform="translate(-2188.672 2185.964)">
    <path id="Path_50" data-name="Path 50" d="M11.22-8.008A3.752,3.752,0,0,1,13.3-6.644a3.938,3.938,0,0,1,.737,2.42,3.735,3.735,0,0,1-1.419,3.1A6.139,6.139,0,0,1,8.712,0H1.672V-15.51h6.82a6.049,6.049,0,0,1,3.795,1.067,3.559,3.559,0,0,1,1.375,2.981,3.557,3.557,0,0,1-.649,2.134A3.711,3.711,0,0,1,11.22-8.008ZM4.444-8.976H8.03q2.926,0,2.926-2.178a1.879,1.879,0,0,0-.726-1.628,3.743,3.743,0,0,0-2.2-.528H4.444ZM8.4-2.2a3.657,3.657,0,0,0,2.244-.55,2.042,2.042,0,0,0,.7-1.716A2.092,2.092,0,0,0,10.637-6.2,3.557,3.557,0,0,0,8.4-6.776H4.444V-2.2Zm17.93-8.558V0H23.65V-1.65A3.5,3.5,0,0,1,22.286-.3,3.943,3.943,0,0,1,20.35.176q-3.96,0-3.96-4.444v-6.49h2.75v6.512A2.6,2.6,0,0,0,19.6-2.552,1.792,1.792,0,0,0,21.054-2a2.368,2.368,0,0,0,1.837-.759,2.87,2.87,0,0,0,.693-2.013v-5.984Zm9.108-.264a3.6,3.6,0,0,1,2.882,1.1A4.988,4.988,0,0,1,39.27-6.6V0H36.52V-6.446a2.852,2.852,0,0,0-.473-1.826,1.818,1.818,0,0,0-1.485-.572,2.51,2.51,0,0,0-1.9.748,2.777,2.777,0,0,0-.715,2V0h-2.75V-10.758h2.684v1.606a3.72,3.72,0,0,1,1.474-1.386A4.436,4.436,0,0,1,35.442-11.022ZM52.448-15.51V0H49.72V-1.738a3.444,3.444,0,0,1-1.4,1.408,4.216,4.216,0,0,1-2.079.506,4.459,4.459,0,0,1-2.475-.7,4.668,4.668,0,0,1-1.694-1.991,6.88,6.88,0,0,1-.6-2.959,6.662,6.662,0,0,1,.6-2.926,4.583,4.583,0,0,1,1.683-1.936,4.55,4.55,0,0,1,2.486-.682,4.306,4.306,0,0,1,2.068.484A3.358,3.358,0,0,1,49.7-9.174V-15.51ZM46.97-1.958A2.446,2.446,0,0,0,49-2.86a4.059,4.059,0,0,0,.715-2.574A4.011,4.011,0,0,0,49-8a2.434,2.434,0,0,0-2.013-.891,2.5,2.5,0,0,0-2.046.88,3.882,3.882,0,0,0-.726,2.53,4.11,4.11,0,0,0,.726,2.6A2.429,2.429,0,0,0,46.97-1.958Z" transform="translate(2187 -2168)" fill="#fff"/>
    <path id="Path_51" data-name="Path 51" d="M10.976.224a9.7,9.7,0,0,1-4.97-1.232A8.171,8.171,0,0,1,2.758-4.522,11.914,11.914,0,0,1,1.624-9.884a11.914,11.914,0,0,1,1.134-5.362,8.084,8.084,0,0,1,3.248-3.5,9.783,9.783,0,0,1,4.97-1.218,10.918,10.918,0,0,1,3.752.63,8.093,8.093,0,0,1,2.94,1.806L16.66-15.4a9.4,9.4,0,0,0-2.73-1.652,8.343,8.343,0,0,0-2.926-.5,5.846,5.846,0,0,0-4.746,1.988A8.619,8.619,0,0,0,4.592-9.884a8.678,8.678,0,0,0,1.666,5.7,5.827,5.827,0,0,0,4.746,2,8.343,8.343,0,0,0,2.926-.5A9.4,9.4,0,0,0,16.66-4.34l1.008,2.128a8.092,8.092,0,0,1-2.94,1.806A10.918,10.918,0,0,1,10.976.224Z" transform="translate(2247 -2166)" fill="#fff"/>
    <path id="Path_52" data-name="Path 52" d="M10.976-18.224a9.7,9.7,0,0,0-4.97,1.232,8.171,8.171,0,0,0-3.248,3.514A11.914,11.914,0,0,0,1.624-8.116,11.914,11.914,0,0,0,2.758-2.754,8.084,8.084,0,0,0,6.006.746a9.783,9.783,0,0,0,4.97,1.218,10.918,10.918,0,0,0,3.752-.63,8.093,8.093,0,0,0,2.94-1.806L16.66-2.6A9.4,9.4,0,0,1,13.93-.948,8.343,8.343,0,0,1,11-.444,5.846,5.846,0,0,1,6.258-2.432,8.619,8.619,0,0,1,4.592-8.116a8.678,8.678,0,0,1,1.666-5.7,5.827,5.827,0,0,1,4.746-2,8.343,8.343,0,0,1,2.926.5,9.4,9.4,0,0,1,2.73,1.652l1.008-2.128a8.092,8.092,0,0,0-2.94-1.806A10.918,10.918,0,0,0,10.976-18.224Z" transform="translate(2271 -2184) rotate(180)" fill="#1991eb"/>
  </g>
</svg>
