<svg xmlns="http://www.w3.org/2000/svg" width="98.448" height="47" viewBox="0 0 98.448 47">
  <g id="Group_705" data-name="Group 705" transform="translate(-2022.552 2199)">
    <path id="Path_49" data-name="Path 49" d="M13.77-9.828a4.6,4.6,0,0,1,2.552,1.674,4.833,4.833,0,0,1,.9,2.97,4.584,4.584,0,0,1-1.742,3.807A7.534,7.534,0,0,1,10.692,0H2.052V-19.035h8.37a7.423,7.423,0,0,1,4.658,1.309,4.367,4.367,0,0,1,1.688,3.658,4.365,4.365,0,0,1-.8,2.619A4.554,4.554,0,0,1,13.77-9.828ZM5.454-11.016h4.4q3.591,0,3.591-2.673a2.306,2.306,0,0,0-.891-2,4.594,4.594,0,0,0-2.7-.648h-4.4ZM10.314-2.7a4.488,4.488,0,0,0,2.754-.675,2.507,2.507,0,0,0,.864-2.106,2.567,2.567,0,0,0-.877-2.133,4.366,4.366,0,0,0-2.741-.7H5.454V-2.7ZM32.319-13.2V0H29.025V-2.025A4.3,4.3,0,0,1,27.351-.365a4.839,4.839,0,0,1-2.376.581q-4.86,0-4.86-5.454V-13.2H23.49v7.992a3.186,3.186,0,0,0,.567,2.079,2.2,2.2,0,0,0,1.782.675,2.906,2.906,0,0,0,2.254-.931,3.522,3.522,0,0,0,.851-2.47V-13.2ZM43.5-13.527a4.413,4.413,0,0,1,3.537,1.35A6.122,6.122,0,0,1,48.195-8.1V0H44.82V-7.911a3.5,3.5,0,0,0-.58-2.241,2.231,2.231,0,0,0-1.823-.7,3.081,3.081,0,0,0-2.335.918A3.408,3.408,0,0,0,39.2-7.479V0H35.829V-13.2h3.294v1.971a4.566,4.566,0,0,1,1.809-1.7A5.444,5.444,0,0,1,43.5-13.527Zm20.871-5.508V0H61.02V-2.133A4.227,4.227,0,0,1,59.306-.405a5.175,5.175,0,0,1-2.552.621,5.472,5.472,0,0,1-3.037-.864,5.729,5.729,0,0,1-2.079-2.444A8.444,8.444,0,0,1,50.9-6.723a8.176,8.176,0,0,1,.743-3.591A5.624,5.624,0,0,1,53.7-12.69a5.584,5.584,0,0,1,3.051-.837,5.284,5.284,0,0,1,2.538.594,4.121,4.121,0,0,1,1.7,1.674v-7.776ZM57.645-2.4a3,3,0,0,0,2.5-1.107,4.981,4.981,0,0,0,.878-3.159,4.922,4.922,0,0,0-.878-3.146,2.987,2.987,0,0,0-2.47-1.094,3.073,3.073,0,0,0-2.511,1.08,4.764,4.764,0,0,0-.891,3.105,5.045,5.045,0,0,0,.891,3.186A2.981,2.981,0,0,0,57.645-2.4Z" transform="translate(2021 -2168)" fill="#021f35" stroke="rgba(0,0,0,0)" stroke-width="1"/>
    <g id="Group_2" data-name="Group 2" transform="translate(2092 -2198)">
      <text id="C" transform="translate(0 33)" fill="#021f35" stroke="rgba(0,0,0,0)" stroke-miterlimit="10" stroke-width="1" font-size="33" font-family="NunitoSans-SemiBold, Nunito Sans" font-weight="600"><tspan x="0" y="0">C</tspan></text>
      <text id="C-2" data-name="C" transform="matrix(-1, 0, 0, 1, 28, 33)" fill="#1991eb" stroke="rgba(0,0,0,0)" stroke-miterlimit="10" stroke-width="1" font-size="33" font-family="NunitoSans-SemiBold, Nunito Sans" font-weight="600"><tspan x="0" y="0">C</tspan></text>
    </g>
  </g>
</svg>
